<svg width="35" height="37" viewBox="0 0 35 37" fill="none" xmlns="http://www.w3.org/2000/svg">
<path d="M17.462 15.3255L13.4013 19.6382L28.9239 36.1237L32.9846 31.8111L17.462 15.3255Z" fill="url(#paint0_linear_24_14)"/>
<path d="M10.7203 0C16.6405 0.000179077 21.4392 5.09718 21.4392 11.3846C21.4392 17.6721 16.6405 22.7691 10.7203 22.7692C4.80004 22.7692 0 17.6722 0 11.3846C0 5.09706 4.80004 0 10.7203 0ZM10.7203 4.48047C6.9071 4.48047 3.81618 7.5714 3.81618 11.3846C3.81618 15.1979 6.9071 18.2888 10.7203 18.2888C14.5335 18.2885 17.6245 15.1977 17.6245 11.3846C17.6245 7.57149 14.5335 4.48064 10.7203 4.48047Z" fill="url(#paint1_linear_24_14)"/>
<defs>
<linearGradient id="paint0_linear_24_14" x1="15.4316" y1="17.4819" x2="31.8874" y2="32.9764" gradientUnits="userSpaceOnUse">
<stop stop-color="#7474FF"/>
<stop offset="1" stop-color="#73C0FF"/>
</linearGradient>
<linearGradient id="paint1_linear_24_14" x1="0" y1="0" x2="21" y2="23" gradientUnits="userSpaceOnUse">
<stop stop-color="#7474FF"/>
<stop offset="1" stop-color="#73C0FF"/>
</linearGradient>
</defs>
</svg>
